<svg width="71" height="70" viewBox="0 0 71 70" fill="none" xmlns="http://www.w3.org/2000/svg">
<g clip-path="url(#clip0_656_1413)">
<path d="M70.5 35C70.5 15.7638 54.7362 0 35.5 0H35.2949C16.1409 0.122833 0.5 15.8455 0.5 35C0.5 54.154 16.1409 69.8766 35.2949 70H35.5C41.9397 70 48.1737 68.0998 53.6286 64.7775L70.5 70L65.6876 52.4316C68.7638 47.1813 70.5 41.1523 70.5 35Z" fill="#FEC753"/>
<path d="M65.6876 52.4316L70.5 70L53.6286 64.7775C48.1737 68.0998 41.9397 70 35.5 70H35.2949V0H35.5C54.7362 0 70.5 15.7638 70.5 35C70.5 41.1523 68.7638 47.1813 65.6876 52.4316Z" fill="#FEC753"/>
<path d="M55.8027 35C55.8027 46.3204 46.6153 55.5078 35.2949 55.5078C23.9745 55.5078 14.7871 46.3204 14.7871 35C14.7871 23.6796 23.9745 14.4922 35.2949 14.4922C46.6153 14.4922 55.8027 23.6796 55.8027 35Z" fill="#8D630B"/>
<path d="M35.664 12.4414H35.5C35.4589 12.4414 35.4589 12.4414 35.4589 12.4414H35.2949C22.8669 12.4414 12.7363 22.5719 12.7363 35C12.7363 47.4275 22.8669 57.5586 35.2949 57.5586H35.4589H35.5H35.664C47.9275 57.3535 57.8535 47.3047 57.8535 35C57.8535 22.6953 47.9281 12.6465 35.664 12.4414ZM51.7423 26.7969H45.057C44.5234 23.4745 43.6209 20.3983 42.3498 17.9785C46.492 19.6603 49.7732 22.8593 51.7423 26.7969ZM35.2949 16.5841C35.336 16.543 35.4178 16.543 35.4589 16.543C35.5 16.543 35.5411 16.5841 35.5822 16.5841C37.3868 16.6658 39.7655 20.4806 40.9143 26.7969H30.0857C31.1934 20.6445 33.4903 16.8709 35.2949 16.5841ZM16.8379 35C16.8379 33.6056 17.043 32.2112 17.3303 30.8984H25.41C25.2872 32.2517 25.2461 33.6462 25.2461 35C25.2461 36.3533 25.2872 37.7477 25.41 39.1016H17.3303C17.043 37.7888 16.8379 36.3944 16.8379 35ZM18.8475 43.2031H25.9436C26.5177 46.6072 27.4202 49.7245 28.6913 52.1854C24.3847 50.5448 20.8983 47.3047 18.8475 43.2031ZM25.9436 26.7969H18.8475C20.8983 22.6953 24.3847 19.4552 28.6913 17.8146C27.4202 20.2755 26.5177 23.3923 25.9436 26.7969ZM35.5822 53.4159C35.5411 53.4159 35.5 53.457 35.4589 53.457H35.2949C33.4903 53.1286 31.1934 49.3555 30.0857 43.2031H40.9137C39.7655 49.5194 37.3868 53.3337 35.5822 53.4159ZM41.4884 39.1016H29.5116C29.4299 37.7888 29.3477 36.4355 29.3477 35C29.3477 33.5645 29.4299 32.2112 29.5116 30.8984H41.4884C41.5701 32.2112 41.6523 33.5645 41.6523 35C41.6523 36.4355 41.5701 37.7888 41.4884 39.1016ZM42.3493 52.0215C43.6209 49.6017 44.5234 46.5255 45.057 43.2031H51.7423C49.7732 47.1407 46.492 50.3397 42.3493 52.0215ZM45.59 39.1016C45.7128 37.7477 45.7539 36.3533 45.7539 35C45.7539 33.6462 45.7128 32.2517 45.59 30.8984H53.2601C53.588 32.2112 53.752 33.6056 53.752 35C53.752 36.3944 53.588 37.7888 53.2601 39.1016H45.59Z" fill="#BC9639"/>
<path d="M55.8027 35C55.8027 46.3204 46.6153 55.5078 35.2949 55.5078V14.4922C46.6153 14.4922 55.8027 23.6796 55.8027 35Z" fill="#8D630B"/>
<path d="M35.664 12.4414H35.5C35.4589 12.4414 35.4589 12.4414 35.4589 12.4414H35.2949V16.5841C35.336 16.543 35.4178 16.543 35.4589 16.543C35.5 16.543 35.5411 16.5841 35.5822 16.5841C37.3868 16.6658 39.7655 20.4806 40.9143 26.7969H35.2949V30.8984H41.4884C41.5701 32.2112 41.6523 33.5645 41.6523 35C41.6523 36.4355 41.5701 37.7888 41.4884 39.1016H35.2949V43.2031H40.9143C39.7655 49.5194 37.3868 53.3337 35.5822 53.4159C35.5411 53.4159 35.5 53.457 35.4589 53.457H35.2949V57.5586H35.4589H35.5H35.664C47.9275 57.3535 57.8535 47.3047 57.8535 35C57.8535 22.6953 47.9281 12.6465 35.664 12.4414ZM51.7423 26.7969H45.057C44.5234 23.4745 43.6209 20.3983 42.3498 17.9785C46.492 19.6603 49.7732 22.8593 51.7423 26.7969ZM42.3493 52.0215C43.6209 49.6017 44.5234 46.5255 45.057 43.2031H51.7423C49.7732 47.1407 46.492 50.3397 42.3493 52.0215ZM45.59 39.1016C45.7128 37.7477 45.7539 36.3533 45.7539 35C45.7539 33.6462 45.7128 32.2517 45.59 30.8984H53.2601C53.588 32.2112 53.752 33.6056 53.752 35C53.752 36.3944 53.588 37.7888 53.2601 39.1016H45.59Z" fill="#BC9639"/>
</g>
<defs>
<clipPath id="clip0_656_1413">
<rect width="70" height="70" fill="white" transform="translate(0.5)"/>
</clipPath>
</defs>
</svg>
