<svg width="70" height="70" viewBox="0 0 70 70" fill="none" xmlns="http://www.w3.org/2000/svg">
<path d="M35 70C54.33 70 70 54.33 70 35C70 15.67 54.33 0 35 0C15.67 0 0 15.67 0 35C0 54.33 15.67 70 35 70Z" fill="#62DAFA"/>
<path d="M57.2353 57.2353C51.2959 63.1745 43.3993 66.4453 35 66.4453C26.6007 66.4453 18.7041 63.1743 12.7647 57.2351C6.82541 51.2959 3.55469 43.3993 3.55469 35C3.55469 26.6007 6.82568 18.7041 12.7649 12.7647C18.7041 6.82555 26.6007 3.55469 35 3.55469C43.3993 3.55469 51.2959 6.82568 57.2353 12.7649C63.1746 18.7041 66.4453 26.6007 66.4453 35C66.4453 43.3993 63.1745 51.2959 57.2353 57.2353Z" fill="#197D98"/>
<path d="M54.3349 57.2353C53.534 56.4344 53.534 55.1359 54.3349 54.335L15.6651 15.6651C14.8642 16.466 13.5658 16.466 12.7649 15.6651C11.964 14.8642 11.964 13.5658 12.7649 12.7649C6.82555 18.7041 3.55469 26.6007 3.55469 35C3.55469 43.3993 6.82568 51.2959 12.7649 57.2353C18.7041 63.1746 26.6007 66.4453 35 66.4453C43.3993 66.4453 51.2959 63.1743 57.2353 57.2351C56.4344 58.036 55.1358 58.036 54.3349 57.2353Z" fill="#116C84"/>
<path d="M35 62.3438C50.1015 62.3438 62.3438 50.1015 62.3438 35C62.3438 19.8985 50.1015 7.65625 35 7.65625C19.8985 7.65625 7.65625 19.8985 7.65625 35C7.65625 50.1015 19.8985 62.3438 35 62.3438Z" fill="#FFF5F5"/>
<path d="M32.2656 59.6094C32.2656 58.0992 33.4898 56.875 35 56.875V13.125C33.4898 13.125 32.2656 11.9008 32.2656 10.3906C32.2656 8.88043 33.4898 7.65625 35 7.65625C19.8985 7.65625 7.65625 19.8985 7.65625 35C7.65625 50.1015 19.8985 62.3438 35 62.3438C33.4898 62.3438 32.2656 61.1196 32.2656 59.6094Z" fill="#FFF2B4"/>
<path d="M35 54.8242C45.9486 54.8242 54.8242 45.9486 54.8242 35C54.8242 24.0514 45.9486 15.1758 35 15.1758C24.0514 15.1758 15.1758 24.0514 15.1758 35C15.1758 45.9486 24.0514 54.8242 35 54.8242Z" fill="#FFF2B4"/>
<path d="M35 13.125C22.9381 13.125 13.125 22.9381 13.125 35C13.125 47.0619 22.9381 56.875 35 56.875C47.062 56.875 56.875 47.0619 56.875 35C56.875 22.9381 47.062 13.125 35 13.125ZM37.0431 51.1056C36.0853 49.6214 33.9147 49.6214 32.9569 51.1056C32.3807 51.9984 31.291 52.4155 30.2669 52.1322C24.2647 50.472 19.5278 45.7352 17.8678 39.7331C17.5845 38.709 18.0016 37.6193 18.8944 37.0431C20.3785 36.0853 20.3785 33.9147 18.8944 32.9569C18.0016 32.3807 17.5845 31.291 17.8678 30.2669C19.5279 24.2647 24.2648 19.5278 30.2669 17.8678C31.291 17.5845 32.3807 18.0016 32.9569 18.8944C33.9147 20.3785 36.0853 20.3785 37.0431 18.8944C37.6193 18.0016 38.709 17.5845 39.7331 17.8678C45.7353 19.5279 50.4722 24.2648 52.1324 30.2671C52.4156 31.2911 51.9985 32.3809 51.1057 32.957C49.6217 33.9149 49.6217 36.0854 51.1057 37.0433C51.9985 37.6194 52.4156 38.7092 52.1324 39.7332C50.4723 45.7354 45.7354 50.4723 39.7331 52.1325C38.709 52.4155 37.6193 51.9984 37.0431 51.1056Z" fill="#F7D984"/>
<path d="M47.5677 50.4679C46.7668 49.667 46.7668 48.3686 47.5677 47.5677L47.561 47.561C45.4191 49.703 42.7342 51.3023 39.7331 52.1324C38.709 52.4156 37.6193 51.9985 37.0431 51.1057C36.0853 49.6215 33.9147 49.6215 32.9569 51.1057C32.3807 51.9985 31.291 52.4156 30.2669 52.1324C24.2647 50.4722 19.5278 45.7353 17.8678 39.7332C17.5845 38.7092 18.0016 37.6194 18.8944 37.0433C20.3786 36.0854 20.3786 33.9149 18.8944 32.957C18.0016 32.3809 17.5845 31.2911 17.8678 30.2671C18.6978 27.266 20.2971 24.5812 22.4391 22.4392L22.4324 22.4325C21.6315 23.2334 20.3331 23.2334 19.5322 22.4325C18.7852 21.6855 18.7355 20.5059 19.3822 19.7006C15.514 23.648 13.125 29.0499 13.125 35C13.125 47.0619 22.9381 56.875 35 56.875C40.9503 56.875 46.3522 54.4858 50.2998 50.6179C49.4945 51.2646 48.3148 51.215 47.5677 50.4679Z" fill="#EAC66E"/>
<path d="M61.6315 6.46337L30.6164 28.3542C29.9237 28.8431 29.8385 29.8383 30.438 30.438L39.5621 39.562C40.1617 40.1617 41.1569 40.0765 41.6458 39.3836L63.5368 8.36868C64.4222 7.11429 62.8859 5.57798 61.6315 6.46337Z" fill="#FC544D"/>
<path d="M42.2307 27.7695C40.1285 25.6673 40.1285 22.2589 42.2307 20.1567L30.6164 28.3542C29.9237 28.8431 29.8385 29.8383 30.438 30.438L39.5621 39.562C40.1617 40.1617 41.1569 40.0765 41.6458 39.3836L49.8433 27.7693C47.7413 29.8717 44.333 29.8717 42.2307 27.7695Z" fill="#F52C2C"/>
<path d="M8.3685 63.5366L39.3834 41.6458C40.0762 41.1569 40.1614 40.1617 39.5618 39.562L30.4378 30.438C29.8381 29.8383 28.843 29.9235 28.354 30.6164L6.46319 61.6313C5.5778 62.8857 7.11411 64.422 8.3685 63.5366Z" fill="#028FCE"/>
<path d="M39.5621 39.562L30.438 30.438C29.8383 29.8383 28.8432 29.9235 28.3543 30.6164L20.1567 42.2306C22.2589 40.1285 25.6673 40.1285 27.7695 42.2306C29.8717 44.3328 29.8717 47.7412 27.7695 49.8434L39.3838 41.6459C40.0765 41.1569 40.1617 40.1617 39.5621 39.562Z" fill="#197D98"/>
<path d="M35 39.1016C37.2652 39.1016 39.1016 37.2652 39.1016 35C39.1016 32.7348 37.2652 30.8984 35 30.8984C32.7348 30.8984 30.8984 32.7348 30.8984 35C30.8984 37.2652 32.7348 39.1016 35 39.1016Z" fill="#FDF061"/>
</svg>
