<svg width="51" height="50" viewBox="0 0 51 50" fill="none" xmlns="http://www.w3.org/2000/svg">
<g clip-path="url(#clip0_656_2051)">
<path fill-rule="evenodd" clip-rule="evenodd" d="M25.5 50H13C9.68484 49.9999 6.5055 48.6828 4.16133 46.3387C1.81715 43.9945 0.500145 40.8152 0.5 37.5L0.5 12.5C0.500145 9.18484 1.81715 6.0055 4.16133 3.66133C6.5055 1.31715 9.68484 0.000145029 13 0L38 0C41.3152 0 44.4946 1.31696 46.8388 3.66117C49.183 6.00537 50.5 9.18479 50.5 12.5V37.5C50.5 40.8152 49.183 43.9946 46.8388 46.3388C44.4946 48.683 41.3152 50 38 50H33.3125C33.3125 48.964 32.901 47.9704 32.1684 47.2379C31.4358 46.5053 30.4423 46.0938 29.4062 46.0938C28.3702 46.0938 27.3767 46.5053 26.6441 47.2379C25.9116 47.9704 25.5 48.964 25.5 50Z" fill="#3764B9"/>
<path fill-rule="evenodd" clip-rule="evenodd" d="M23.9375 14.0625H38C39.8026 14.0624 41.5362 13.37 42.843 12.1284C44.1498 10.8868 44.9298 9.19082 45.0221 7.39063C45.1143 5.59043 44.5117 3.82356 43.3387 2.45489C42.1657 1.08623 40.5119 0.220298 38.7188 0.0359375C38.4797 0.0226562 38.243 0 38 0H13C9.68484 0.000145029 6.5055 1.31715 4.16133 3.66133C1.81715 6.0055 0.500145 9.18484 0.5 12.5L0.5 37.5C0.500145 31.284 2.96949 25.3227 7.36484 20.9273C11.7602 16.532 17.7215 14.0626 23.9375 14.0625Z" fill="#507DD2"/>
<path fill-rule="evenodd" clip-rule="evenodd" d="M38 25C35.5277 25 33.111 25.7331 31.0554 27.1066C28.9998 28.4801 27.3976 30.4324 26.4515 32.7165C25.5054 35.0005 25.2579 37.5139 25.7402 39.9386C26.2225 42.3634 27.413 44.5907 29.1612 46.3388C30.9093 48.087 33.1366 49.2775 35.5614 49.7598C37.9861 50.2421 40.4995 49.9946 42.7835 49.0485C45.0676 48.1024 47.0199 46.5002 48.3934 44.4446C49.7669 42.389 50.5 39.9723 50.5 37.5V12.5C50.5 15.8152 49.183 18.9946 46.8388 21.3388C44.4946 23.683 41.3152 25 38 25Z" fill="#1E4BA0"/>
<path fill-rule="evenodd" clip-rule="evenodd" d="M41.125 14.0625C41.125 14.4769 40.9604 14.8743 40.6674 15.1674C40.3743 15.4604 39.9769 15.625 39.5625 15.625H34.875C34.4606 15.625 34.0632 15.7896 33.7701 16.0826C33.4771 16.3757 33.3125 16.7731 33.3125 17.1875V23.4375H39.2188C39.4499 23.4375 39.6782 23.4888 39.8871 23.5877C40.0961 23.6866 40.2805 23.8306 40.427 24.0093C40.5736 24.1881 40.6787 24.3971 40.7347 24.6214C40.7907 24.8457 40.7962 25.0796 40.7509 25.3062C40.4609 26.757 40.0668 28.7273 39.8134 29.9937C39.7426 30.348 39.5513 30.6667 39.2719 30.8958C38.9926 31.1248 38.6425 31.25 38.2812 31.25H33.3125V50H25.5V31.25H20.8125C20.3981 31.25 20.0007 31.0854 19.7076 30.7924C19.4146 30.4993 19.25 30.1019 19.25 29.6875V25C19.25 24.5856 19.4146 24.1882 19.7076 23.8951C20.0007 23.6021 20.3981 23.4375 20.8125 23.4375H25.5V17.1875C25.5 14.7011 26.4877 12.3165 28.2459 10.5584C30.004 8.80022 32.3886 7.8125 34.875 7.8125H39.5625C39.9769 7.8125 40.3743 7.97712 40.6674 8.27015C40.9604 8.56317 41.125 8.9606 41.125 9.375V14.0625Z" fill="white"/>
</g>
<path d="M0.5 0V-1H-0.5V0H0.5ZM50.5 0H51.5V-1H50.5V0ZM50.5 50V51H51.5V50H50.5ZM0.5 50H-0.5V51H0.5V50ZM0.5 1H50.5V-1H0.5V1ZM49.5 0V50H51.5V0H49.5ZM50.5 49H0.5V51H50.5V49ZM1.5 50V0H-0.5V50H1.5Z" fill="black"/>
<defs>
<clipPath id="clip0_656_2051">
<path d="M0.5 0H50.5V50H0.5V0Z" fill="white"/>
</clipPath>
</defs>
</svg>
