<svg width="51" height="50" viewBox="0 0 51 50" fill="none" xmlns="http://www.w3.org/2000/svg">
<g clip-path="url(#clip0_656_2038)">
<path fill-rule="evenodd" clip-rule="evenodd" d="M38 50H13C9.68484 49.9999 6.5055 48.6828 4.16133 46.3387C1.81715 43.9945 0.500145 40.8152 0.5 37.5L0.5 12.5C0.500145 9.18484 1.81715 6.0055 4.16133 3.66133C6.5055 1.31715 9.68484 0.000145029 13 0L38 0C41.3152 0 44.4946 1.31696 46.8388 3.66117C49.183 6.00537 50.5 9.18479 50.5 12.5V37.5C50.5 40.8152 49.183 43.9946 46.8388 46.3388C44.4946 48.683 41.3152 50 38 50Z" fill="#DEEBF5"/>
<path fill-rule="evenodd" clip-rule="evenodd" d="M23.9375 14.0625H38C39.8026 14.0624 41.5362 13.37 42.843 12.1284C44.1498 10.8868 44.9298 9.19082 45.0221 7.39063C45.1143 5.59043 44.5117 3.82356 43.3387 2.45489C42.1657 1.08623 40.5119 0.220298 38.7188 0.0359375C38.4797 0.0226562 38.243 0 38 0H13C9.68484 0.000145029 6.5055 1.31715 4.16133 3.66133C1.81715 6.0055 0.500145 9.18484 0.5 12.5L0.5 37.5C0.500145 31.284 2.96949 25.3227 7.36484 20.9273C11.7602 16.532 17.7215 14.0626 23.9375 14.0625Z" fill="#F0FAFF"/>
<path fill-rule="evenodd" clip-rule="evenodd" d="M38 25C35.5277 25 33.111 25.7331 31.0554 27.1066C28.9998 28.4801 27.3976 30.4324 26.4515 32.7165C25.5054 35.0005 25.2579 37.5139 25.7402 39.9386C26.2225 42.3634 27.413 44.5907 29.1612 46.3388C30.9093 48.087 33.1366 49.2775 35.5614 49.7598C37.9861 50.2421 40.4995 49.9946 42.7835 49.0485C45.0676 48.1024 47.0199 46.5002 48.3934 44.4446C49.7669 42.389 50.5 39.9723 50.5 37.5V12.5C50.5 15.8152 49.183 18.9946 46.8388 21.3388C44.4946 23.683 41.3152 25 38 25Z" fill="#CDDCEB"/>
<path d="M41.1251 25.3664C41.1251 24.7578 41.097 24.1469 41.0399 23.5398C41.0027 23.1538 40.8229 22.7956 40.5357 22.535C40.2486 22.2744 39.8746 22.1302 39.4868 22.1304C36.6938 22.1273 30.3321 22.1273 27.3774 22.1273C26.963 22.1273 26.5656 22.2919 26.2726 22.585C25.9796 22.878 25.8149 23.2754 25.8149 23.6898V26.7031C25.8151 27.1175 25.9798 27.5148 26.2727 27.8078C26.5657 28.1008 26.9631 28.2655 27.3774 28.2656H34.4243C34.248 29.2463 33.8748 30.1812 33.3273 31.0137C32.7797 31.8462 32.0691 32.5591 31.2384 33.1094V33.1109C31.2383 33.6337 31.3413 34.1515 31.5414 34.6345C31.7414 35.1176 32.0347 35.5565 32.4044 35.9262C32.7741 36.2959 33.213 36.5891 33.696 36.7892C34.1791 36.9892 34.6968 37.0922 35.2196 37.0922H36.3751C39.3915 34.3164 41.1251 30.2164 41.1251 25.3664Z" fill="#1E78FF"/>
<path d="M25.8148 40.9406C29.6982 41.0498 33.477 39.6734 36.3805 37.0922L31.2445 33.1094C30.0076 33.901 28.6065 34.4005 27.1477 34.5699C25.6889 34.7392 24.2107 34.574 22.8253 34.0868C21.4399 33.5996 20.1836 32.8032 19.1519 31.758C18.1203 30.7128 17.3402 29.4463 16.8711 28.0547H15.675C14.5864 28.0548 13.5424 28.4873 12.7727 29.257C12.0029 30.0268 11.5704 31.0708 11.5703 32.1594V32.1609C12.898 34.8005 14.933 37.0193 17.4483 38.5696C19.9636 40.1199 22.8602 40.9408 25.8148 40.9406Z" fill="#00B450"/>
<path d="M16.8657 28.0547C16.1977 26.0754 16.1977 23.9316 16.8657 21.9523V21.9508C16.8656 20.8622 16.4331 19.8182 15.6633 19.0484C14.8936 18.2787 13.8496 17.8462 12.761 17.8461H11.5704C10.4557 20.0673 9.87524 22.5182 9.87524 25.0035C9.87524 27.4887 10.4557 29.9396 11.5704 32.1609L16.8657 28.0547Z" fill="#FFB400"/>
<path d="M25.8148 15.3688C27.6301 15.3402 29.4087 15.8818 30.9 16.9172C31.196 17.1327 31.5592 17.2354 31.9242 17.2068C32.2892 17.1781 32.6319 17.02 32.8906 16.761C33.6055 16.0828 34.5453 15.143 35.2859 14.4024C35.443 14.2454 35.5648 14.0567 35.6432 13.8489C35.7217 13.6411 35.7549 13.419 35.7407 13.1974C35.7265 12.9757 35.6652 12.7596 35.5609 12.5636C35.4566 12.3675 35.3118 12.1959 35.1359 12.0602C32.4358 10.0772 29.1647 9.02468 25.8148 9.06097C22.8594 9.06058 19.9621 9.88198 17.4467 11.4334C14.9312 12.9848 12.8966 15.205 11.5703 17.8461L16.8656 21.9524C17.482 20.0573 18.6768 18.403 20.282 17.2221C21.8873 16.0412 23.8222 15.3931 25.8148 15.3688Z" fill="#E60014"/>
</g>
<defs>
<clipPath id="clip0_656_2038">
<rect width="50" height="50" fill="white" transform="translate(0.5)"/>
</clipPath>
</defs>
</svg>
