<svg width="50" height="48" viewBox="0 0 50 48" fill="none" xmlns="http://www.w3.org/2000/svg">
<path d="M34.2575 46.5885L20.7033 46.6022L19.3605 47.3024H0.848535C0.379883 47.3024 0 46.9225 0 46.4539V40.8405L0.846484 36.5904L0 32.8535V12.1707L1.07187 9.57598L0 6.98135V1.5458C0 1.07715 0.379883 0.697266 0.848535 0.697266H34.2576C34.7263 0.697266 35.1062 1.07715 35.1062 1.5458V45.74C35.1061 46.2086 34.7262 46.5885 34.2575 46.5885V46.5885Z" fill="#2D3C6B"/>
<path d="M35.1062 4.17031V5.13984L34.4891 6.28955L34.485 45.5964C34.485 46.0641 34.1048 46.4442 33.6361 46.4442L22.284 46.4587L21.2066 47.3024H19.3604V43.5108C19.3604 42.3473 19.5333 41.1917 19.8732 40.0823L23.9363 26.7969C24.4101 25.2501 24.6504 23.6379 24.6504 22.0167V13.2801C24.6504 10.6964 25.6691 8.35615 27.3176 6.6625C28.966 4.96992 30.501 3.92188 33.0153 3.92188C33.7344 3.92188 34.4344 4.00742 35.1062 4.17031V4.17031Z" fill="#2D3C6B"/>
<path d="M35.1067 1.54536V46.4546C35.1067 46.9222 34.7266 47.3024 34.2579 47.3024H32.167C32.6356 47.3024 33.0158 46.9222 33.0158 46.4546V1.54536C33.0158 1.07769 32.6356 0.69751 32.167 0.69751H34.2579C34.7266 0.697607 35.1067 1.07769 35.1067 1.54536V1.54536Z" fill="#1E2F59"/>
<path d="M0 6.98145H35.1061V12.1709H0V6.98145Z" fill="#FFDD40"/>
<path d="M35.1068 6.9812V12.1706H24.7158C24.9431 10.1833 25.7769 8.38716 27.0219 6.9812H35.1068Z" fill="#FED402"/>
<path d="M33.0156 6.98145H35.1061V12.1709H33.0156V6.98145Z" fill="#FED402"/>
<path d="M35.1061 40.8406H17.6363L12.0411 39.7408L6.23154 40.8406H0V32.8535H35.1061V40.8406Z" fill="#C8EFFE"/>
<path d="M35.1066 32.8533V40.8407H19.6689C19.7293 40.5862 19.7977 40.3328 19.8741 40.0824L22.0847 32.8533H35.1066Z" fill="#99E6FC"/>
<path d="M33.0156 32.8535H35.1061V40.8406H33.0156V32.8535Z" fill="#99E6FC"/>
<path d="M4.26016 20.0147C3.84355 20.0147 3.50586 19.677 3.50586 19.2604V17.3678C3.50586 16.9512 3.84355 16.6135 4.26016 16.6135C4.67676 16.6135 5.01445 16.9512 5.01445 17.3678V19.2604C5.01445 19.677 4.67676 20.0147 4.26016 20.0147V20.0147Z" fill="#1E2F59"/>
<path d="M22.3084 19.0684H8.8959C8.4793 19.0684 8.1416 18.7307 8.1416 18.3141C8.1416 17.8975 8.4793 17.5598 8.8959 17.5598H22.3084C22.725 17.5598 23.0627 17.8975 23.0627 18.3141C23.0627 18.7307 22.725 19.0684 22.3084 19.0684Z" fill="#1E2F59"/>
<path d="M17.6362 40.8407H6.23145V24.6574C6.23145 24.2943 6.52578 24 6.88887 24H16.9787C17.3418 24 17.6361 24.2943 17.6361 24.6574V40.8407H17.6362Z" fill="#FFDD40"/>
<path d="M9.92285 24H11.9343V40.8407H9.92285V24Z" fill="#FED402"/>
<path d="M17.6365 24.6577V40.8407H15.436V24.6577C15.436 24.2946 15.1413 24 14.7783 24H16.9788C17.3429 24 17.6365 24.2946 17.6365 24.6577Z" fill="#FED402"/>
<path d="M11.1797 24H12.6883V40.8407H11.1797V24Z" fill="#FEA613"/>
<path d="M45.4241 27.348C44.9511 25.843 44.7104 24.2747 44.7104 22.697V21.064V14.195C44.7104 9.16538 40.6331 5.08813 35.6035 5.08813V5.08833V5.08813C30.5739 5.08813 26.4967 9.16538 26.4967 14.195V21.064V22.697C26.4967 24.2747 26.256 25.843 25.7829 27.348L21.719 40.276C21.3797 41.3556 21.207 42.4807 21.207 43.6125V47.3025H50.0001V43.6125C50.0001 42.4807 49.8274 41.3556 49.4881 40.276L45.4241 27.348Z" fill="#FDF6EC"/>
<path d="M50.0004 43.613V47.3023H47.3221V43.613C47.3221 42.4806 47.1493 41.356 46.8104 40.2759L42.7467 27.3478C42.2729 25.8431 42.0322 24.2749 42.0322 22.6977V14.1956C42.0322 9.62017 38.6595 5.83394 34.2646 5.18628C34.7016 5.12163 35.1485 5.08813 35.6032 5.08813H35.6043C40.6333 5.08813 44.7105 9.16528 44.7105 14.1955V22.6976C44.7105 24.2748 44.9513 25.843 45.4239 27.3477L49.4889 40.2758C49.8276 41.356 50.0004 42.4806 50.0004 43.613V43.613Z" fill="#FEF1DA"/>
<path d="M29.477 42.6399C29.0604 42.6399 28.7227 42.3022 28.7227 41.8856C28.7227 39.994 29.5176 38.1709 30.9035 36.8835L38.8333 29.5185C39.913 28.5158 40.5322 27.0956 40.5322 25.6219V18.7248C40.5322 18.3082 40.8699 17.9705 41.2865 17.9705C41.7031 17.9705 42.0408 18.3082 42.0408 18.7248V25.6219C42.0408 27.5135 41.2459 29.3367 39.86 30.6239L31.9302 37.9889C30.8505 38.9917 30.2313 40.412 30.2313 41.8855C30.2312 42.3022 29.8935 42.6399 29.477 42.6399V42.6399Z" fill="#FDDEB0"/>
<path d="M31.5378 33.8146C31.3321 33.8146 31.1271 33.731 30.9782 33.5665C30.6987 33.2576 30.7225 32.7806 31.0314 32.5012L34.7929 29.0971C35.1017 28.8176 35.5788 28.8414 35.8583 29.1504C36.1377 29.4593 36.1139 29.9362 35.805 30.2157L32.0435 33.6197C31.8993 33.7502 31.7182 33.8146 31.5378 33.8146Z" fill="#FDDEB0"/>
<path d="M28.2884 37.3448C28.0985 37.3448 27.9086 37.2737 27.7619 37.1307C27.4637 36.8399 27.4575 36.3623 27.7484 36.064L28.6397 35.1496C28.9304 34.8514 29.408 34.8452 29.7064 35.136C30.0046 35.4269 30.0107 35.9044 29.7199 36.2028L28.8286 37.1171C28.6808 37.2687 28.4846 37.3448 28.2884 37.3448Z" fill="#FDDEB0"/>
<path d="M42.04 19.3102C42.04 22.8653 39.1581 25.7473 35.603 25.7473C32.048 25.7473 29.166 22.8653 29.166 19.3102V15.7992L29.4538 14.8555L29.9498 13.8989C30.3422 10.7442 32.048 8.54932 35.6031 8.54932C39.1582 8.54932 41.1325 11.1572 41.3575 14.0406L41.7473 14.82L42.0401 15.7992V19.3102H42.04Z" fill="#F6A96C"/>
<path d="M41.6059 13.8635L41.7476 14.8201L42.0407 15.7993V19.3104C42.0407 22.8648 39.1584 25.7471 35.6039 25.7471C35.2238 25.7471 34.8516 25.7137 34.4894 25.6512C37.5133 25.1229 39.8115 22.4847 39.8115 19.3103V14.4551C39.8115 12.6774 39.0904 11.0679 37.9257 9.90308C37.0106 8.98804 35.7449 8.60503 34.4141 8.37212C34.7763 8.30972 35.5574 8.26587 35.9374 8.26587C37.7141 8.26587 38.5988 8.80161 39.7636 9.96636C40.9284 11.1312 41.6059 12.0858 41.6059 13.8635V13.8635Z" fill="#EA9B58"/>
<path d="M42.0407 14.4547V15.7993C41.7938 15.4871 41.4036 15.0596 40.8301 14.6057C37.7776 12.1921 33.429 12.1921 30.3767 14.6057C29.8031 15.0596 29.4129 15.4871 29.166 15.7993V14.4547C29.166 11.046 31.8154 8.25657 35.1682 8.03352C35.3962 8.01839 35.6227 8.01477 35.8511 8.02337C37.5309 8.08616 39.0443 8.7928 40.1557 9.90335C41.3205 11.068 42.0407 12.6774 42.0407 14.4547Z" fill="#FDDEB0"/>
<path d="M42.0406 14.4542V15.7995C41.7943 15.4874 41.4031 15.0594 40.8302 14.6058C40.4969 14.3416 40.148 14.1075 39.7869 13.9014C39.6554 12.3442 38.9677 10.9455 37.9256 9.90332C37.0105 8.98828 35.8201 8.34736 34.4893 8.11445C34.8515 8.05205 35.2238 8.01855 35.6038 8.01855C37.3805 8.01855 38.9899 8.73857 40.1547 9.90332C41.3194 11.0681 42.0406 12.6765 42.0406 14.4542V14.4542Z" fill="#FCCD7F"/>
</svg>
