<svg width="50" height="38" viewBox="0 0 50 38" fill="none" xmlns="http://www.w3.org/2000/svg">
<path d="M40.8992 4.47929C42.1931 4.82109 43.0945 5.99106 43.0945 7.33002V36.3133H6.90527V7.33002C6.90527 5.99106 7.80669 4.82109 9.10063 4.47929L23.8963 0.571899C24.2576 0.47615 24.6287 0.428467 24.9999 0.428467C25.3711 0.428467 25.7422 0.47615 26.1035 0.571899L40.5479 4.3866L40.7889 4.44992L40.8992 4.47929Z" fill="#2D3C6B"/>
<path d="M40.8993 4.47929C42.1932 4.82109 43.0946 5.99106 43.0946 7.33002V36.3133H25V0.428467C25.3712 0.428467 25.7423 0.47615 26.1036 0.571899L40.5479 4.3866L40.789 4.44992L40.8993 4.47929Z" fill="#5A5A5A"/>
<path d="M40.8992 4.47929C42.1931 4.82109 43.0945 5.99106 43.0945 7.33002V36.3133H6.90527V7.33002C6.90527 5.99106 7.80669 4.82109 9.10063 4.47929L23.8963 0.571899C24.2576 0.47615 24.6287 0.428467 24.9999 0.428467C25.3711 0.428467 25.7422 0.47615 26.1035 0.571899L40.5479 4.3866L40.7889 4.44992L40.8992 4.47929Z" fill="#2D3C6B"/>
<path d="M40.8993 4.47929C42.1932 4.82109 43.0946 5.99106 43.0946 7.33002V36.3133H25V0.428467C25.3712 0.428467 25.7423 0.47615 26.1036 0.571899L40.5479 4.3866L40.789 4.44992L40.8993 4.47929Z" fill="#1E2F59"/>
<path d="M43.0945 7.33014V36.3135H40.5479V4.38672L40.7889 4.45004L40.8992 4.47942C42.1931 4.82121 43.0945 5.99118 43.0945 7.33014V7.33014Z" fill="#2D3C6B"/>
<path d="M6.90527 22.6633L24.9999 17.885V6.5061L6.90527 11.2848V22.6633Z" fill="#FED402"/>
<path d="M25 6.5061L43.0946 11.2848V22.6633L25 17.885V6.5061Z" fill="#FED402"/>
<path d="M40.5479 21.9907L43.0949 22.6632V11.2847L40.5479 10.6118V21.9907Z" fill="#FFDD40"/>
<path d="M28.2305 25.5112C28.2305 25.3358 28.3117 25.1706 28.451 25.0638C28.5898 24.9566 28.7702 24.9203 28.9396 24.965L34.5377 26.4432C34.7856 26.5088 34.9585 26.7331 34.9585 26.9894V36.3129H28.2305V25.5112Z" fill="#FED402"/>
<path d="M32.7402 25.9688V36.3131H34.9589V26.9896C34.9589 26.7332 34.7861 26.5089 34.5385 26.4433L32.7402 25.9688Z" fill="#FFDD40"/>
<path d="M11.9381 14.8215L8.75248 15.6626C8.36147 15.766 8.12839 16.1666 8.23139 16.5576C8.31836 16.886 8.61477 17.1034 8.93902 17.1034C9.00119 17.1034 9.06414 17.0954 9.1267 17.0786L12.3124 16.2375C12.7034 16.1341 12.9368 15.7336 12.8334 15.3426C12.7301 14.9516 12.3291 14.7177 11.9381 14.8215Z" fill="#2D3C6B"/>
<path d="M22.7791 11.9585L19.5934 12.7996C19.2024 12.903 18.969 13.3035 19.0723 13.6949C19.1589 14.0234 19.4553 14.2404 19.78 14.2404C19.8418 14.2404 19.9047 14.2324 19.9673 14.216L23.1529 13.3745C23.5443 13.2715 23.7774 12.8706 23.674 12.4796C23.5706 12.0882 23.1697 11.8547 22.7791 11.9585Z" fill="#2D3C6B"/>
<path d="M16.4707 12.2061C16.3334 12.0688 16.1473 11.9917 15.9531 11.9917C15.7585 11.9917 15.5724 12.0688 15.4351 12.2061L13.5456 14.0955C13.2595 14.3816 13.2595 14.8451 13.5456 15.1312L15.4351 17.0206C15.5781 17.1633 15.7654 17.235 15.9531 17.235C16.1404 17.235 16.3277 17.1633 16.4707 17.0206L18.3602 15.1312C18.4975 14.9939 18.5745 14.8077 18.5745 14.6132C18.5745 14.419 18.4975 14.2328 18.3602 14.0951L16.4707 12.2061ZM15.9531 15.4665L15.0994 14.6132L15.9531 13.7598L16.8064 14.6132L15.9531 15.4665Z" fill="#2D3C6B"/>
<path d="M30.4069 12.9314L27.2212 12.0899C26.8302 11.9865 26.4293 12.22 26.3263 12.6114C26.2229 13.0024 26.456 13.4029 26.8474 13.5063L30.033 14.3474C30.0956 14.3642 30.1585 14.3719 30.2203 14.3719C30.5449 14.3719 30.8413 14.1548 30.9279 13.8264C31.0313 13.4354 30.7979 13.0344 30.4069 12.9314Z" fill="#5A5A5A"/>
<path d="M37.1671 15.474C37.0637 15.865 37.2971 16.266 37.6882 16.3694L40.8738 17.2105C40.9364 17.2269 40.9993 17.2349 41.0615 17.2349C41.3857 17.2349 41.6821 17.0179 41.7691 16.6894C41.8721 16.2984 41.639 15.8975 41.248 15.7941L38.0624 14.953C37.6714 14.8496 37.2704 15.083 37.1671 15.474V15.474Z" fill="#5A5A5A"/>
<path d="M34.5653 12.1487C34.2792 11.8626 33.8153 11.8626 33.5296 12.1487L31.6402 14.0377C31.5028 14.175 31.4258 14.3616 31.4258 14.5557C31.4258 14.7499 31.5028 14.9361 31.6402 15.0738L33.5296 16.9632C33.6669 17.1005 33.8531 17.1776 34.0472 17.1776C34.2418 17.1776 34.4279 17.1005 34.5653 16.9628L36.4547 15.0738C36.7408 14.7877 36.7408 14.3238 36.4547 14.0377L34.5653 12.1487ZM34.0472 15.4091L33.1939 14.5557L34.0472 13.7024L34.901 14.5557L34.0472 15.4091Z" fill="#5A5A5A"/>
<path d="M49.2676 37.0454H0.732422C0.327683 37.0454 0 36.7173 0 36.313C0 35.9082 0.327683 35.5806 0.732422 35.5806H49.2676C49.6723 35.5806 50 35.9082 50 36.313C50 36.7173 49.6723 37.0454 49.2676 37.0454Z" fill="#BEBEBE"/>
</svg>
