<svg width="51" height="50" viewBox="0 0 51 50" fill="none" xmlns="http://www.w3.org/2000/svg">
<path fill-rule="evenodd" clip-rule="evenodd" d="M38 50H13C9.68484 49.9999 6.5055 48.6828 4.16133 46.3387C1.81715 43.9945 0.500145 40.8152 0.5 37.5L0.5 12.5C0.500145 9.18484 1.81715 6.0055 4.16133 3.66133C6.5055 1.31715 9.68484 0.000145029 13 0L38 0C41.3152 0 44.4946 1.31696 46.8388 3.66117C49.183 6.00537 50.5 9.18479 50.5 12.5V37.5C50.5 40.8152 49.183 43.9946 46.8388 46.3388C44.4946 48.683 41.3152 50 38 50Z" fill="#2D2D2D"/>
<path fill-rule="evenodd" clip-rule="evenodd" d="M23.9375 14.0625H38C39.8026 14.0624 41.5362 13.37 42.843 12.1284C44.1498 10.8868 44.9298 9.19082 45.0221 7.39063C45.1143 5.59043 44.5117 3.82356 43.3387 2.45489C42.1657 1.08623 40.5119 0.220298 38.7187 0.0359375C38.4797 0.0226562 38.243 0 38 0H13C9.68484 0.000145029 6.5055 1.31715 4.16133 3.66133C1.81715 6.0055 0.500145 9.18484 0.5 12.5L0.5 37.5C0.500145 31.284 2.96949 25.3227 7.36485 20.9273C11.7602 16.532 17.7215 14.0626 23.9375 14.0625" fill="#464646"/>
<path fill-rule="evenodd" clip-rule="evenodd" d="M38 25C35.5277 25 33.111 25.7331 31.0554 27.1066C28.9998 28.4801 27.3976 30.4324 26.4515 32.7165C25.5054 35.0005 25.2579 37.5139 25.7402 39.9386C26.2225 42.3634 27.413 44.5907 29.1612 46.3388C30.9093 48.087 33.1366 49.2775 35.5614 49.7598C37.9861 50.2421 40.4995 49.9946 42.7835 49.0485C45.0676 48.1024 47.0199 46.5002 48.3934 44.4446C49.7669 42.389 50.5 39.9723 50.5 37.5V12.5C50.5 15.8152 49.183 18.9946 46.8388 21.3388C44.4946 23.683 41.3152 25 38 25Z" fill="#141414"/>
<path d="M31.0229 9.5406C31.0039 11.0165 30.4494 12.4352 29.4626 13.5328C29.0013 14.1446 28.4187 14.6547 27.7513 15.0313C27.084 15.4078 26.3461 15.6426 25.5839 15.7211C25.5107 15.7226 25.438 15.7095 25.3699 15.6825C25.3019 15.6555 25.2399 15.6153 25.1876 15.564C25.1353 15.5128 25.0937 15.4517 25.0654 15.3842C25.037 15.3167 25.0224 15.2443 25.0224 15.1711H25.0146C25.0646 13.6713 25.652 12.2394 26.6698 11.1367C27.2346 10.5031 27.9201 9.98866 28.6862 9.62342C29.237 9.3461 29.8241 9.14755 30.4301 9.03357C30.5032 9.02243 30.5778 9.02721 30.6488 9.04757C30.7199 9.06793 30.7857 9.10339 30.8418 9.15154C30.8978 9.19969 30.9428 9.25938 30.9737 9.32653C31.0046 9.39368 31.0206 9.4667 31.0206 9.5406H31.0229ZM36.528 31.2031C36.112 32.1722 35.598 33.0963 34.9941 33.9609C34.4258 34.8276 33.7631 35.6286 33.0182 36.3492C32.3411 37.0259 31.4354 37.4249 30.4791 37.4679C29.6687 37.4323 28.8725 37.2422 28.1333 36.9078C27.3356 36.5601 26.4779 36.3704 25.608 36.3492C24.7145 36.3669 23.8328 36.5566 23.0111 36.9078C22.3012 37.228 21.5428 37.4273 20.7672 37.4976C20.2792 37.4917 19.7974 37.3869 19.3511 37.1895C18.9047 36.9921 18.503 36.7062 18.1703 36.3492C17.3928 35.6033 16.6997 34.7741 16.1037 33.8765C15.1722 32.5411 14.4362 31.0795 13.9182 29.5359C13.3272 27.8741 13.0169 26.1254 13.0001 24.3617C12.9531 22.6315 13.3823 20.9216 14.2408 19.4187C14.8665 18.3338 15.7615 17.4287 16.8392 16.7906C17.9017 16.1548 19.114 15.8127 20.3522 15.7992C21.2872 15.8546 22.206 16.0686 23.0694 16.432C23.7575 16.735 24.4819 16.948 25.2246 17.0656C26.0436 16.8949 26.8439 16.6448 27.6144 16.3187C28.6445 15.9002 29.7514 15.7037 30.8626 15.7422C32.3503 15.8139 33.7826 16.3283 34.9759 17.2195C35.142 17.358 35.2764 17.5305 35.3701 17.7254C35.4637 17.9204 35.5145 18.1331 35.5188 18.3493C35.5231 18.5655 35.481 18.7801 35.3952 18.9787C35.3094 19.1772 35.182 19.355 35.0216 19.5C34.3838 20.0688 33.879 20.771 33.5431 21.5568C33.2073 22.3426 33.0485 23.1928 33.0782 24.0469C33.0675 24.9001 33.2382 25.7459 33.5792 26.5282C33.9201 27.3105 34.4235 28.0114 35.0558 28.5844C35.3329 28.8484 35.6321 29.0881 35.9503 29.3008C36.2506 29.5008 36.4719 29.7992 36.5759 30.1447C36.68 30.4901 36.6605 30.8611 36.5206 31.1937C36.5297 31.1992 36.5288 31.2015 36.528 31.2031V31.2031Z" fill="white"/>
</svg>
