<svg width="70" height="70" viewBox="0 0 70 70" fill="none" xmlns="http://www.w3.org/2000/svg">
<path d="M34.9998 0L26.2861 35L34.9998 70C54.3298 70 69.9998 54.33 69.9998 35C69.9998 15.67 54.3298 0 34.9998 0Z" fill="#D1DEE4"/>
<path d="M0 35C0 54.33 15.67 70 35 70V0C15.67 0 0 15.67 0 35Z" fill="#D1DEE4"/>
<path d="M35.0001 8.20312L29.0781 35L35.0001 61.7969C49.7996 61.7969 61.797 49.7995 61.797 35C61.797 20.2005 49.7996 8.20312 35.0001 8.20312Z" fill="#6BBF32"/>
<path d="M8.20312 35C8.20312 49.7995 20.2005 61.7969 35 61.7969V8.20312C20.2005 8.20312 8.20312 20.2005 8.20312 35Z" fill="#6BBF32"/>
<path d="M38.0762 16.8164C37.0192 16.8164 35.9737 17.0215 35 17.4154L33.6328 29.1211L35 41.2891H37.0508V29.1211H42.1777V33.2227H46.2793V25.0195C46.2793 20.4963 42.5994 16.8164 38.0762 16.8164Z" fill="#EFF6F9"/>
<path d="M31.9238 16.8164C27.4006 16.8164 23.7207 20.4963 23.7207 25.0195V33.2227H27.8223V29.1211H32.9492V41.2891H35V17.4154C34.0263 17.0215 32.9808 16.8164 31.9238 16.8164Z" fill="white"/>
<path d="M28.2871 41.8501L35 45.4022L37.7344 49.9491H35C34.4824 49.735 33.9831 49.5045 33.5098 49.2542L26.3688 45.4755C23.998 44.221 20.6657 43.5014 17.2266 43.5014V39.3999C21.373 39.3997 25.301 40.2699 28.2871 41.8501Z" fill="white"/>
<path d="M35.4281 45.6288C37.799 46.8834 41.1312 47.6029 44.5703 47.6029V51.7044C41.0811 51.7044 37.7489 51.086 35 49.949V45.4021L35.4281 45.6288Z" fill="#EFF6F9"/>
<path d="M41.7129 41.8501L35 45.4022L32.2656 49.9491H35C35.5176 49.735 36.0169 49.5045 36.4902 49.2542L43.6312 45.4755C46.002 44.221 49.3343 43.5014 52.7734 43.5014V39.3999C48.627 39.3997 44.699 40.2699 41.7129 41.8501Z" fill="#D1DEE4"/>
<path d="M34.5719 45.6288C32.201 46.8834 28.8688 47.6029 25.4297 47.6029V51.7044C28.9189 51.7044 32.2511 51.086 35 49.949V45.4021L34.5719 45.6288Z" fill="#EFF6F9"/>
</svg>
