<svg width="68" height="70" viewBox="0 0 68 70" fill="none" xmlns="http://www.w3.org/2000/svg">
<path d="M34 3.00781C15.5006 3.00781 0.503906 18.0045 0.503906 36.5039C0.503906 47.2352 5.55102 56.7871 13.4003 62.9174H54.5997C62.449 56.7871 67.4961 47.2352 67.4961 36.5039C67.4961 18.0045 52.4994 3.00781 34 3.00781Z" fill="#62DAFA"/>
<path d="M67.496 36.5039C67.496 33.0884 66.9834 29.7929 66.0334 26.6886C65.3693 26.4191 64.6434 26.2705 63.8827 26.2705C60.7824 26.2705 58.23 28.747 58.1602 31.8578C58.1543 32.1144 57.9564 32.3293 57.7004 32.3471C57.1785 32.3835 56.6896 32.5705 56.2829 32.875C56.0525 33.0475 55.7278 32.9771 55.5661 32.7389C54.9921 31.8933 54.0232 31.3377 52.9241 31.3377C51.7304 31.3377 50.6898 31.993 50.1424 32.9634C49.9907 33.2325 49.6474 33.3118 49.3962 33.1319C48.9794 32.833 48.468 32.6577 47.9157 32.6595C46.5884 32.6636 45.4662 33.7282 45.3966 35.0537C45.3201 36.5132 46.4808 37.7207 47.9236 37.7207H67.4718C67.4863 37.3164 67.496 36.9113 67.496 36.5039Z" fill="#B1E4F9"/>
<path d="M35.5407 16.6491C34.8348 16.6469 34.1811 16.871 33.6485 17.2529C33.3276 17.4828 32.8889 17.3815 32.6949 17.0377C31.9953 15.7975 30.6654 14.9599 29.14 14.9599C27.7355 14.9599 26.4973 15.6701 25.7638 16.7507C25.5572 17.055 25.1423 17.145 24.8478 16.9246C24.3281 16.5355 23.7031 16.2964 23.0362 16.25C22.7091 16.2272 22.4561 15.9527 22.4488 15.6247C22.363 11.8114 19.3578 8.74566 15.616 8.50189C10.2137 12.0558 5.90195 17.1301 3.28857 23.117H35.5304C37.3742 23.117 38.8576 21.574 38.7597 19.7089C38.6708 18.0149 37.2368 16.6544 35.5407 16.6491Z" fill="#B1E4F9"/>
<path d="M20 39.2712V30.5948H24.2651V37.8165L20 39.2712Z" fill="#FFDD40"/>
<path d="M47.5258 39.2712V30.5948H43.2607V37.8165L47.5258 39.2712Z" fill="#FFDD40"/>
<path d="M22.8209 35.1322C21.4373 35.6042 20 34.5756 20 33.1138V39.2712L24.2649 37.8165V33.114C24.2651 34.0264 23.6846 34.8377 22.8209 35.1322Z" fill="#FFB332"/>
<path d="M44.7049 35.1322C43.8414 34.8376 43.2607 34.0263 43.2607 33.1138V37.8164L47.5258 39.2711V33.1137C47.5258 34.5758 46.0884 35.6042 44.7049 35.1322Z" fill="#FFB332"/>
<path d="M41.437 27.9858L43.2608 30.7398H47.5259L49.3498 27.9858H41.437Z" fill="#FFC839"/>
<path d="M45.9228 30.505L45.1337 29.3135C44.7571 28.7448 45.1648 27.9858 45.8468 27.9858H41.4365L43.2604 30.7398H46.1561C46.0653 30.678 45.9853 30.5993 45.9228 30.505Z" fill="#FFB332"/>
<path d="M45.3931 15.8006C44.8268 15.8006 44.3677 15.3416 44.3677 14.7752V11.1915C44.3677 10.6251 44.8268 10.1661 45.3931 10.1661C45.9594 10.1661 46.4185 10.6251 46.4185 11.1915V14.7752C46.4185 15.3416 45.9594 15.8006 45.3931 15.8006Z" fill="#FFB332"/>
<path d="M45.3931 8.75887C44.8268 8.75887 44.3677 8.29991 44.3677 7.73348V4.90094C44.3677 4.33465 44.8268 3.87555 45.3931 3.87555C45.9594 3.87555 46.4185 4.33465 46.4185 4.90094V7.73362C46.4185 8.29991 45.9594 8.75887 45.3931 8.75887Z" fill="#FFB332"/>
<path d="M30.9208 35.4796L14.0729 41.132C13.5673 41.3015 13.2266 41.7751 13.2266 42.3085V62.7806C18.9361 67.3005 26.1525 70 33.9999 70V34.9769C32.9532 34.9769 31.9133 35.1467 30.9208 35.4796Z" fill="#1E2F59"/>
<path d="M53.927 41.132L37.079 35.4796C36.0866 35.1467 35.0467 34.9769 34 34.9769V70C35.9951 70 37.9493 69.8246 39.8484 69.4902L46.0103 67.7804C49.1937 66.5569 52.1437 64.8626 54.7733 62.7807V42.3085C54.7732 41.7753 54.4325 41.3015 53.927 41.132Z" fill="#3C5082"/>
<path d="M34 34.9769V70C35.9951 70 37.9493 69.8246 39.8484 69.4902L43.4265 68.4974C42.7213 68.14 42.5493 67.1995 42.5493 67.1995C42.5493 67.1995 42.5493 58.2444 42.5493 55.7151C42.5493 53.1858 43.5636 53.1012 43.5636 53.1012C42.0601 52.424 42.105 49.9729 42.105 49.9729C42.105 49.9729 42.105 42.2483 42.105 40.095C42.105 37.9417 45.0225 38.1446 45.0225 38.1446L37.0792 35.4796C36.0867 35.1467 35.0467 34.9769 34 34.9769Z" fill="#2D3C6B"/>
<path d="M54.7732 54.7764L51.232 53.8795C50.6825 53.7407 50.1253 54.0729 49.9862 54.6219C49.8472 55.1708 50.1795 55.7286 50.7285 55.8675L54.773 56.8918V54.7764H54.7732Z" fill="#FFDD40"/>
<path d="M34 42.4297V46.4943L54.7733 52.6068V48.9445L34 42.4297Z" fill="#FFDD40"/>
<path d="M34 42.4297V46.4943L42.1051 48.8791C42.1051 47.9233 42.1051 46.4591 42.1051 44.9716L34 42.4297Z" fill="#FFB332"/>
<path d="M13.2266 48.9445V52.6068L33.9999 46.4943V42.4297L13.2266 48.9445Z" fill="#FFA219"/>
<path d="M46.7047 53.9116L39.3678 52.0181C39.0367 51.9326 38.7139 52.1827 38.7139 52.5246V69.6682C41.6473 69.255 44.4592 68.4637 47.0972 67.3419V54.4183C47.0972 54.1796 46.9356 53.9712 46.7047 53.9116Z" fill="#FFDD40"/>
<path d="M42.5495 67.1993C42.5495 67.1993 42.5495 58.2443 42.5495 55.715C42.5495 53.1862 43.5634 53.101 43.5634 53.101L39.3678 52.018C39.0367 51.9325 38.7139 52.1826 38.7139 52.5245V69.6681C40.4049 69.4299 42.0553 69.0653 43.6556 68.5848C42.7579 68.3374 42.5495 67.1993 42.5495 67.1993Z" fill="#FFB332"/>
<path d="M13.2266 56.8937L33.9999 51.4812V49.3619L13.2266 54.7744V56.8937Z" fill="#FFA219"/>
<path d="M42.8081 18.3652L43.4154 15.5285C43.5437 14.9293 44.0673 14.5018 44.6729 14.5018H46.1131C46.7187 14.5018 47.2423 14.9293 47.3707 15.5285L47.978 18.3652H42.8081Z" fill="#FFC839"/>
<path d="M47.478 16.03C47.3604 16.4913 46.9432 16.8468 46.4276 16.8468H44.3585C43.8428 16.8468 43.4257 16.4913 43.3081 16.03L42.8081 18.365H47.978L47.478 16.03Z" fill="#FFB332"/>
<path d="M40.5365 21.5705L41.7352 18.9689C41.918 18.572 42.3152 18.3179 42.7522 18.3179H48.0343C48.4712 18.3179 48.8683 18.572 49.0512 18.9689L50.25 21.5705C50.4083 21.9141 50.1573 22.3061 49.779 22.3061H41.0075C40.6291 22.3061 40.3782 21.9141 40.5365 21.5705Z" fill="#FFDD40"/>
<path d="M45.0291 19.5323L45.2887 18.9689C45.4715 18.572 45.8686 18.3179 46.3056 18.3179H42.752C42.3151 18.3179 41.918 18.572 41.7351 18.9689L40.5365 21.5705C40.3782 21.9141 40.6292 22.3061 41.0075 22.3061H46.8052C45.3786 22.3061 44.4321 20.828 45.0291 19.5323Z" fill="#FFC839"/>
<path d="M41.7437 22.3061H45.3934V27.2959H41.7437V22.3061Z" fill="#FFC839"/>
<path d="M45.3931 22.3061H49.0428V27.2959H45.3931V22.3061Z" fill="#FFDD40"/>
<path d="M49.5188 23.3315H41.2676C40.7013 23.3315 40.2422 22.8725 40.2422 22.3061C40.2422 21.7397 40.7013 21.2807 41.2676 21.2807H49.5188C50.0851 21.2807 50.5442 21.7397 50.5442 22.3061C50.5442 22.8725 50.0851 23.3315 49.5188 23.3315Z" fill="#FCEA9D"/>
<path d="M49.5188 28.3213H41.2676C40.7013 28.3213 40.2422 27.8623 40.2422 27.2959C40.2422 26.7295 40.7013 26.2705 41.2676 26.2705H49.5188C50.0851 26.2705 50.5442 26.7295 50.5442 27.2959C50.5442 27.8622 50.0851 28.3213 49.5188 28.3213Z" fill="#FCEA9D"/>
<path d="M44.1986 22.3061C44.1986 21.7397 44.6577 21.2807 45.2239 21.2807H41.2676C40.7013 21.2807 40.2422 21.7397 40.2422 22.3061C40.2422 22.8725 40.7013 23.3315 41.2676 23.3315H45.2239C44.6577 23.3315 44.1986 22.8725 44.1986 22.3061Z" fill="#FFDD40"/>
<path d="M44.1986 27.2958C44.1986 26.7294 44.6577 26.2704 45.2239 26.2704H41.2676C40.7013 26.2704 40.2422 26.7294 40.2422 27.2958C40.2422 27.8622 40.7013 28.3212 41.2676 28.3212H45.2239C44.6577 28.3213 44.1986 27.8622 44.1986 27.2958Z" fill="#FFDD40"/>
<path d="M45.3934 12.2853C46.5331 12.2853 47.4571 11.1745 47.4571 9.80438C47.4571 8.43422 46.5331 7.32349 45.3934 7.32349C44.2536 7.32349 43.3296 8.43422 43.3296 9.80438C43.3296 11.1745 44.2536 12.2853 45.3934 12.2853Z" fill="#FFC839"/>
<path d="M45.7122 10.5943C46.3159 10.5943 46.8053 10.006 46.8053 9.28031C46.8053 8.55461 46.3159 7.96631 45.7122 7.96631C45.1085 7.96631 44.6191 8.55461 44.6191 9.28031C44.6191 10.006 45.1085 10.5943 45.7122 10.5943Z" fill="#FFDD40"/>
<path d="M45.3931 5.37947C43.4708 5.37947 41.9067 3.81554 41.9067 1.89314C41.9067 1.46985 41.9823 1.05573 42.1315 0.66212C42.3322 0.132745 42.9242 -0.133583 43.4537 0.0667102C43.9834 0.267413 44.2498 0.859406 44.0491 1.38905C43.9883 1.54956 43.9575 1.71909 43.9575 1.89327C43.9575 2.68487 44.6016 3.32882 45.3931 3.32882C46.1847 3.32882 46.8286 2.68487 46.8286 1.89327C46.8286 1.7195 46.7977 1.5497 46.737 1.38905C46.5367 0.859269 46.8037 0.26755 47.3334 0.0671204C47.8633 -0.133173 48.4549 0.133839 48.6552 0.663624C48.8039 1.05696 48.8794 1.47054 48.8794 1.89314C48.8794 3.8154 47.3153 5.37947 45.3931 5.37947Z" fill="#FCEA9D"/>
<path d="M18.174 35.9908C18.122 35.0017 17.2846 34.2072 16.2942 34.2042C15.882 34.2029 15.5004 34.3338 15.1894 34.5568C15.002 34.691 14.7459 34.632 14.6326 34.4311C14.224 33.7069 13.4475 33.2179 12.5568 33.2179C11.7366 33.2179 11.0136 33.6325 10.5853 34.2635C10.4647 34.4412 10.2223 34.4937 10.0504 34.3651C9.74691 34.1379 9.38215 33.9983 8.99264 33.9712C8.8015 33.9579 8.65385 33.7976 8.64961 33.606C8.59738 31.2847 6.69275 29.4366 4.3792 29.4366C2.95883 29.4366 1.70088 30.1301 0.92418 31.1966C0.648691 32.9253 0.503906 34.6976 0.503906 36.5039C0.503906 36.9991 0.518262 37.4909 0.53959 37.9809H16.2882C17.3649 37.9809 18.231 37.0799 18.174 35.9908Z" fill="#B1E4F9"/>
<path d="M47.3264 4.79255C45.6664 4.6155 46.1724 3.0971 46.1724 3.0971C45.9477 3.24298 45.6804 3.3287 45.3931 3.3287C44.6016 3.3287 43.9575 2.68475 43.9575 1.89315C43.9575 1.71911 43.9883 1.54944 44.0491 1.38893C44.2498 0.859284 43.9832 0.267291 43.4537 0.0665882C42.9242 -0.133705 42.3322 0.132623 42.1315 0.661998C41.9823 1.05561 41.9067 1.46973 41.9067 1.89301C41.9067 3.81542 43.4708 5.37934 45.3931 5.37934C46.1077 5.37948 46.7727 5.16292 47.3264 4.79255Z" fill="#FFDD40"/>
<path d="M18.1763 27.9858L20.0001 30.7398H24.265L26.089 27.9858H18.1763Z" fill="#FFC839"/>
<path d="M22.6626 30.505L21.8734 29.3135C21.4969 28.7448 21.9046 27.9858 22.5865 27.9858H18.1763L20.0001 30.7398H22.8958C22.805 30.678 22.725 30.5993 22.6626 30.505Z" fill="#FFB332"/>
<path d="M22.1328 15.8006C21.5665 15.8006 21.1074 15.3416 21.1074 14.7752V11.1915C21.1074 10.6251 21.5665 10.1661 22.1328 10.1661C22.6991 10.1661 23.1582 10.6251 23.1582 11.1915V14.7752C23.1582 15.3416 22.6991 15.8006 22.1328 15.8006Z" fill="#FFB332"/>
<path d="M22.1328 8.75887C21.5665 8.75887 21.1074 8.29991 21.1074 7.73348V4.90094C21.1074 4.33465 21.5665 3.87555 22.1328 3.87555C22.6991 3.87555 23.1582 4.33465 23.1582 4.90094V7.73362C23.1582 8.29991 22.6991 8.75887 22.1328 8.75887Z" fill="#FFB332"/>
<path d="M19.5479 18.3652L20.1552 15.5285C20.2834 14.9293 20.807 14.5018 21.4127 14.5018H22.8529C23.4584 14.5018 23.982 14.9293 24.1104 15.5285L24.7177 18.3652H19.5479Z" fill="#FFC839"/>
<path d="M24.2178 16.03C24.1002 16.4913 23.6829 16.8468 23.1673 16.8468H21.0982C20.5827 16.8468 20.1653 16.4913 20.0478 16.03L19.5479 18.365H24.7177L24.2178 16.03Z" fill="#FFB332"/>
<path d="M17.2762 21.5705L18.475 18.9689C18.6578 18.572 19.055 18.3179 19.4919 18.3179H24.774C25.211 18.3179 25.608 18.572 25.791 18.9689L26.9897 21.5705C27.148 21.9141 26.897 22.3061 26.5187 22.3061H17.7471C17.3688 22.3061 17.1179 21.9141 17.2762 21.5705Z" fill="#FFDD40"/>
<path d="M21.7685 19.5323L22.0281 18.9689C22.2109 18.572 22.608 18.3179 23.045 18.3179H19.4914C19.0545 18.3179 18.6574 18.572 18.4745 18.9689L17.2757 21.5705C17.1174 21.9141 17.3684 22.3061 17.7467 22.3061H23.5444C22.118 22.3061 21.1715 20.828 21.7685 19.5323Z" fill="#FFC839"/>
<path d="M18.4829 22.3061H22.1326V27.2959H18.4829V22.3061Z" fill="#FFC839"/>
<path d="M22.1328 22.3061H25.7825V27.2959H22.1328V22.3061Z" fill="#FFDD40"/>
<path d="M26.2581 23.3315H18.0068C17.4405 23.3315 16.9814 22.8725 16.9814 22.3061C16.9814 21.7397 17.4405 21.2807 18.0068 21.2807H26.2581C26.8244 21.2807 27.2835 21.7397 27.2835 22.3061C27.2835 22.8725 26.8245 23.3315 26.2581 23.3315Z" fill="#FCEA9D"/>
<path d="M26.2581 28.3213H18.0068C17.4405 28.3213 16.9814 27.8623 16.9814 27.2959C16.9814 26.7295 17.4405 26.2705 18.0068 26.2705H26.2581C26.8244 26.2705 27.2835 26.7295 27.2835 27.2959C27.2835 27.8622 26.8245 28.3213 26.2581 28.3213Z" fill="#FCEA9D"/>
<path d="M20.9378 22.3061C20.9378 21.7397 21.3969 21.2807 21.9632 21.2807H18.0068C17.4405 21.2807 16.9814 21.7397 16.9814 22.3061C16.9814 22.8725 17.4405 23.3315 18.0068 23.3315H21.9632C21.3968 23.3315 20.9378 22.8725 20.9378 22.3061Z" fill="#FFDD40"/>
<path d="M20.9378 27.2958C20.9378 26.7294 21.3969 26.2704 21.9632 26.2704H18.0068C17.4405 26.2704 16.9814 26.7294 16.9814 27.2958C16.9814 27.8622 17.4405 28.3212 18.0068 28.3212H21.9632C21.3968 28.3213 20.9378 27.8622 20.9378 27.2958Z" fill="#FFDD40"/>
<path d="M22.1326 12.2853C23.2724 12.2853 24.1964 11.1745 24.1964 9.80438C24.1964 8.43422 23.2724 7.32349 22.1326 7.32349C20.9928 7.32349 20.0688 8.43422 20.0688 9.80438C20.0688 11.1745 20.9928 12.2853 22.1326 12.2853Z" fill="#FFC839"/>
<path d="M22.4515 10.5943C23.0551 10.5943 23.5445 10.006 23.5445 9.28031C23.5445 8.55461 23.0551 7.96631 22.4515 7.96631C21.8478 7.96631 21.3584 8.55461 21.3584 9.28031C21.3584 10.006 21.8478 10.5943 22.4515 10.5943Z" fill="#FFDD40"/>
<path d="M22.1328 5.37947C20.2104 5.37947 18.6465 3.81554 18.6465 1.89314C18.6465 1.46985 18.7221 1.05573 18.8712 0.66212C19.072 0.132745 19.6639 -0.133583 20.1935 0.0667102C20.723 0.267413 20.9896 0.859406 20.7889 1.38905C20.728 1.54956 20.6973 1.71909 20.6973 1.89327C20.6973 2.68487 21.3412 3.32882 22.1328 3.32882C22.9244 3.32882 23.5684 2.68487 23.5684 1.89327C23.5684 1.7195 23.5375 1.5497 23.4768 1.38905C23.2765 0.859269 23.5435 0.26755 24.0731 0.0671204C24.603 -0.133173 25.1946 0.133839 25.3949 0.663624C25.5437 1.05696 25.6191 1.47054 25.6191 1.89314C25.6191 3.8154 24.0551 5.37947 22.1328 5.37947Z" fill="#FCEA9D"/>
<path d="M24.0662 4.79255C22.4061 4.6155 22.9121 3.0971 22.9121 3.0971C22.6875 3.24298 22.4202 3.3287 22.1328 3.3287C21.3412 3.3287 20.6973 2.68475 20.6973 1.89315C20.6973 1.71911 20.7282 1.54944 20.7889 1.38893C20.9896 0.859284 20.723 0.267291 20.1935 0.0665882C19.6639 -0.133705 19.072 0.132623 18.8712 0.661998C18.7221 1.05561 18.6465 1.46973 18.6465 1.89301C18.6465 3.81542 20.2104 5.37934 22.1328 5.37934C22.8474 5.37948 23.5124 5.16292 24.0662 4.79255Z" fill="#FFDD40"/>
</svg>
