<svg width="70" height="70" viewBox="0 0 70 70" fill="none" xmlns="http://www.w3.org/2000/svg">
<path d="M35 70C53.9193 70 69.2564 54.6629 69.2564 35.7436C69.2564 16.8244 53.9193 1.48727 35 1.48727C16.0807 1.48727 0.743652 16.8244 0.743652 35.7436C0.743652 54.6629 16.0807 70 35 70Z" fill="#FEC753"/>
<path d="M65.3142 14.684H4.89576C3.97335 14.684 3.22559 15.4317 3.22559 16.3541V38.1724V48.5586C8.29944 61.1287 20.6123 70 35.0001 70C49.59 70 62.0464 60.8778 66.9844 48.0267V37.4474V16.3541C66.9844 15.4317 66.2367 14.684 65.3142 14.684Z" fill="#197D98"/>
<path d="M57.329 14.684H27.4385C27.6264 16.3534 28.0038 18.0783 28.5187 19.8178H56.1874C56.7292 18.0625 57.1283 16.3354 57.329 14.684Z" fill="#40A3C1"/>
<path d="M12.1742 16.3007C12.1742 15.5209 12.7093 14.868 13.4319 14.684H4.89576C3.97335 14.684 3.22559 15.4317 3.22559 16.3541V38.1724V48.5586C5.207 53.4675 8.29245 57.8121 12.1742 61.2848V38.1189V16.3007Z" fill="#40A3C1"/>
<path d="M61.9387 18.4196H8.27125C7.34884 18.4196 6.60107 19.1673 6.60107 20.0897V54.8982C12.7565 64.0089 23.1772 70 35.0002 70C46.9584 70 57.4823 63.8709 63.609 54.5842V20.0897C63.6088 19.1673 62.8611 18.4196 61.9387 18.4196Z" fill="#62DAFA"/>
<path d="M42.3055 40.4976C45.5102 40.4976 48.1081 39.7777 48.1081 38.8896C48.1081 38.0016 45.5102 37.2817 42.3055 37.2817C39.1008 37.2817 36.5029 38.0016 36.5029 38.8896C36.5029 39.7777 39.1008 40.4976 42.3055 40.4976Z" fill="#5BB3CE"/>
<path d="M63.5999 19.9179C63.5993 19.9131 63.5982 19.9085 63.5978 19.9038C63.592 19.852 63.5845 19.8009 63.5742 19.7507C63.574 19.7502 63.5739 19.7498 63.5739 19.7494C63.5512 19.6403 63.5179 19.5352 63.4753 19.4351L49.3987 23.4201L47.983 18.4196H44.6407L46.3045 24.2963L32.4413 28.2211L29.6664 18.4196H26.3241L29.347 29.0971L16.6488 32.692L12.608 18.4196H9.26566L17.8658 48.7967C15.64 50.0217 14.1315 52.3887 14.1315 55.1088C14.1315 55.2154 14.135 55.3211 14.1394 55.4265L8.22217 57.1018C8.96574 58.0332 9.75671 58.9248 10.5917 59.7733L14.9935 58.527C16.2106 60.7793 18.5926 62.3096 21.3324 62.3096C21.4521 62.3096 21.571 62.3064 21.6891 62.3005L23.2866 67.9432C24.4755 68.3759 25.6949 68.7454 26.9411 69.046L24.7846 61.4289C27.0183 60.2063 28.5331 57.8345 28.5331 55.1087C28.5331 54.9704 28.5284 54.8334 28.5207 54.6972L35.9955 52.581L40.7888 69.5114C41.8553 69.3298 42.9051 69.099 43.9356 68.8211L39.0899 51.7051L52.9531 47.7803L56.9825 62.0129C57.9069 61.2383 58.7897 60.4156 59.6273 59.549L50.2747 26.5147L63.6087 22.7396V20.0899C63.6087 20.0317 63.6058 19.9744 63.5999 19.9179ZM21.3323 59.0939C19.1315 59.0939 17.3474 57.3097 17.3474 55.1089C17.3474 52.9081 19.1315 51.124 21.3323 51.124C23.5331 51.124 25.3172 52.9081 25.3172 55.1089C25.3172 57.3097 23.5332 59.0939 21.3323 59.0939ZM27.625 51.6086C26.3947 49.4017 24.0384 47.9081 21.3323 47.9081C21.2071 47.9081 21.0828 47.9113 20.9592 47.9176L17.5247 35.7864L30.2229 32.1914L35.1194 49.4869L27.625 51.6086ZM52.077 44.6859L38.2138 48.6107L33.3173 31.3153L47.1805 27.3905L52.077 44.6859Z" fill="white"/>
<path d="M55.6587 13.2685C55.6587 21.3866 48.8472 32.4896 44.9849 38.1326C43.7271 39.9705 41.0222 39.9875 39.7447 38.1634C35.8739 32.6367 29.1216 21.7767 29.1216 13.2685C29.1216 5.94047 35.0622 0 42.3901 0C49.718 0 55.6587 5.94047 55.6587 13.2685Z" fill="#1E2F59"/>
<path d="M45.5456 0.380595C44.5339 0.13381 43.4779 0 42.3901 0C35.0621 0 29.1216 5.94047 29.1216 13.2685C29.1216 21.7767 35.8737 32.6367 39.7447 38.1634C41.0222 39.9875 43.7271 39.9705 44.9849 38.1326C45.1524 37.8878 45.326 37.6321 45.5038 37.3674C41.5776 31.6424 35.4324 21.3853 35.4324 13.2685C35.4324 7.02829 39.7415 1.79699 45.5456 0.380595Z" fill="#3C5082"/>
<path d="M42.3899 23.2146C47.883 23.2146 52.336 18.7616 52.336 13.2685C52.336 7.77546 47.883 3.32245 42.3899 3.32245C36.8969 3.32245 32.4438 7.77546 32.4438 13.2685C32.4438 18.7616 36.8969 23.2146 42.3899 23.2146Z" fill="#FFF5F5"/>
<path d="M37.3381 13.2685C37.3381 8.62 40.5276 4.71701 44.8372 3.62668C44.0543 3.42856 43.2347 3.32257 42.3903 3.32257C36.8972 3.32257 32.4443 7.77562 32.4443 13.2685C32.4443 18.7614 36.8974 23.2146 42.3903 23.2146C43.2347 23.2146 44.0543 23.1085 44.8372 22.9105C40.5276 21.82 37.3381 17.917 37.3381 13.2685Z" fill="#CECECE"/>
</svg>
