<svg width="36" height="50" viewBox="0 0 36 50" fill="none" xmlns="http://www.w3.org/2000/svg">
<path d="M31.7695 41.6992C31.7695 39.541 33.5176 37.793 35.6758 37.793V0.488281H6.18359C2.95117 0.488281 0.324219 3.11523 0.324219 6.34766V41.6992C0.324219 44.9316 2.95117 47.5586 6.18359 47.5586H35.6758V45.6055C33.5176 45.6055 31.7695 43.8574 31.7695 41.6992Z" fill="#6BBF32"/>
<path d="M6.18359 0.488281V47.5586C2.95117 47.5586 0.324219 44.9316 0.324219 41.6992V6.34766C0.324219 3.11523 2.95117 0.488281 6.18359 0.488281Z" fill="#47B85C"/>
<path d="M31.7695 41.6992C31.7695 39.541 33.5176 37.793 35.6758 37.793V35.8398H6.18359C2.95117 35.8398 0.324219 38.4668 0.324219 41.6992C0.324219 44.9316 2.95117 47.5586 6.18359 47.5586H35.6758V45.6055C33.5176 45.6055 31.7695 43.8574 31.7695 41.6992Z" fill="#2B6E38"/>
<path d="M31.7695 41.6992C31.7695 39.541 33.5176 37.793 35.6758 37.793H6.18359C4.02539 37.793 2.27734 39.541 2.27734 41.6992C2.27734 43.8574 4.02539 45.6055 6.18359 45.6055H35.6758C33.5176 45.6055 31.7695 43.8574 31.7695 41.6992Z" fill="#FED402"/>
<path d="M10.0605 49.5117L8.11719 47.5586L6.18359 49.5117V41.6992H10.0605V49.5117Z" fill="#E86B4D"/>
<path d="M8.13672 2.44141H33.7227V33.8867H8.13672V2.44141Z" fill="#FED402"/>
<path d="M31.7695 15.1367V21.1914C31.7695 25.1465 27.1309 26.1133 27.1309 26.1133C27.1309 32.0703 20.9297 33.8867 20.9297 33.8867C20.9297 33.8867 14.7285 32.0703 14.7285 26.1133C14.7285 26.1133 10.0898 25.1367 10.0898 21.1914V15.1367C10.0898 11.1816 14.7285 10.2148 14.7285 10.2148C14.7285 4.25781 20.9297 2.44141 20.9297 2.44141C20.9297 2.44141 27.1309 4.25781 27.1309 10.2148C27.1309 10.2148 31.7695 11.1816 31.7695 15.1367V15.1367Z" fill="#6BBF32"/>
<path d="M28.2539 18.1641C28.2539 13.7598 25.2266 10.1562 21.3984 9.88281L22.8828 8.39844L20.9297 6.44531L18.9766 8.39844L20.4609 9.88281C16.6328 10.1562 13.6055 13.7598 13.6055 18.1641C13.6055 22.5684 16.6328 26.1719 20.4609 26.4453L18.9766 27.9297L20.9297 29.8828L22.8828 27.9297L21.3984 26.4453C25.2266 26.1719 28.2539 22.5684 28.2539 18.1641Z" fill="#FED402"/>
<path d="M20.9297 22.0703C23.087 22.0703 24.8359 20.3214 24.8359 18.1641C24.8359 16.0067 23.087 14.2578 20.9297 14.2578C18.7723 14.2578 17.0234 16.0067 17.0234 18.1641C17.0234 20.3214 18.7723 22.0703 20.9297 22.0703Z" fill="#FFB30F"/>
<path d="M6.18359 41.2109H27.7656V42.1875H6.18359V41.2109Z" fill="#FFB30F"/>
</svg>
