<svg width="70" height="70" viewBox="0 0 70 70" fill="none" xmlns="http://www.w3.org/2000/svg">
<path d="M4.85262 51.9976C2.29685 47.2598 0.825172 41.8509 0.770122 36.1032C0.589184 17.2042 16.1004 1.53693 35.0003 1.53693C53.9057 1.53693 69.2317 16.863 69.2317 35.7685C69.2317 44.3085 66.1044 52.1181 60.9325 58.1145C60.2331 58.9255 58.9563 58.8657 58.3245 58.0008C52.0981 49.4785 42.0283 43.9421 30.6656 43.9421C21.9578 43.9421 14.0093 47.1936 7.96811 52.5486C6.99481 53.4113 5.47018 53.1422 4.85262 51.9976Z" fill="#4FABF7"/>
<path d="M60.9883 20.9581H9.01221V6.98606H36.4072C36.9745 6.61831 37.6942 6.57905 38.2981 6.88294L38.503 6.98606H58.8925C60.0499 6.98606 60.9883 7.92442 60.9883 9.08187V20.9581Z" fill="#FFB52D"/>
<path d="M13.2038 20.9581H6.21777V6.98608H13.2038V20.9581Z" fill="#BC9639"/>
<path d="M60.9883 12.5749V58.0232C59.2142 60.0996 57.1968 61.96 54.9803 63.5596V25.4292C54.9803 24.6575 54.3547 24.032 53.5831 24.032H9.01221V13.4822C9.70131 12.6809 10.4269 11.9119 11.1865 11.1777H59.5911C60.3627 11.1777 60.9883 11.8032 60.9883 12.5749Z" fill="#FFF5F5"/>
<path d="M13.2038 15.3693V17.4651H60.9882V19.5609H13.2038V23.7525H6.21777V11.1777H13.2038V13.2735H60.9882V15.3693H13.2038Z" fill="#BADFE4"/>
<path d="M13.2038 13.2735V15.3693H6.21777V13.2735H13.2038ZM6.21777 19.5609H13.2038V17.4651H6.21777V19.5609Z" fill="#70BDC8"/>
<path d="M57.0762 24.3114V61.9327C51.1164 66.966 43.4133 70 35.0017 70C22.1508 70 10.9538 62.9186 5.1001 52.4451V22.2156H54.9803C56.1378 22.2156 57.0762 23.1539 57.0762 24.3114Z" fill="#FFB52D"/>
<path d="M6.21777 22.2156H13.2038V62.1651C10.4924 59.9237 8.13208 57.2725 6.21777 54.3063V22.2156Z" fill="#BC9639"/>
<path d="M4.82031 19.5993C5.99676 17.4081 7.40486 15.3598 9.01193 13.4871V58.0499C7.40486 56.1772 5.99676 54.1289 4.82031 51.9377V19.5993Z" fill="#FFC14F"/>
<path d="M6.91612 25.1497C5.75868 25.1497 4.82031 24.2114 4.82031 23.0539V6.28746C4.82031 5.13001 5.75868 4.19165 6.91612 4.19165C8.07356 4.19165 9.01193 5.13001 9.01193 6.28746V23.0539C9.01193 24.2114 8.07356 25.1497 6.91612 25.1497Z" fill="#FFD993"/>
<path d="M18.7925 34.9301L22.9841 30.7385H45.3394L49.531 34.9301V66.7718C45.1202 68.8427 40.1953 70 35.0001 70C29.1364 70 23.617 68.5257 18.7925 65.9276V34.9301Z" fill="#FFC14F"/>
<path d="M22.984 36.7222C23.4278 36.0961 24.0512 35.6064 24.7792 35.3281C25.0574 34.6002 25.5471 33.9766 26.1733 33.533C26.7994 33.9767 27.2891 34.6002 27.5674 35.3281C28.2954 35.6063 28.9189 36.096 29.3626 36.7222C28.9188 37.3483 28.2954 37.838 27.5674 38.1164C27.2892 38.8443 26.7995 39.4679 26.1733 39.9115C25.5472 39.4677 25.0575 38.8443 24.7792 38.1164C24.0512 37.838 23.4278 37.3483 22.984 36.7222ZM44.3338 64.6694C44.0556 63.9415 43.5659 63.318 42.9396 62.8743C42.3135 63.318 41.8238 63.9415 41.5455 64.6694C40.8174 64.9476 40.194 65.4375 39.7504 66.0636C40.1941 66.6896 40.8176 67.1794 41.5455 67.4577C41.7964 68.1142 42.2192 68.6857 42.7591 69.1169C42.928 69.0777 43.0965 69.0374 43.2645 68.9957C43.7353 68.5809 44.1056 68.0544 44.3336 67.4577C45.0616 67.1795 45.6851 66.6898 46.1288 66.0636C45.6853 65.4375 45.0619 64.9476 44.3338 64.6694ZM26.7777 64.6694C26.4995 63.9415 26.0098 63.318 25.3836 62.8743C24.7575 63.318 24.2678 63.9415 23.9895 64.6694C23.2615 64.9476 22.6379 65.4375 22.1943 66.0636C22.6381 66.6896 23.2615 67.1794 23.9895 67.4577C24.1117 67.7778 24.2751 68.0776 24.4728 68.3509C24.9537 68.5063 25.4393 68.6512 25.9293 68.7855C26.2957 68.4085 26.5866 67.9577 26.7776 67.4577C27.5057 67.1795 28.1291 66.6898 28.5727 66.0636C28.1291 65.4375 27.5057 64.9476 26.7777 64.6694ZM41.5456 38.1162C41.8238 38.8442 42.3135 39.4677 42.9398 39.9114C43.5659 39.4676 44.0556 38.8442 44.3339 38.1162C45.062 37.838 45.6854 37.3483 46.129 36.7221C45.6853 36.096 45.0618 35.6063 44.3339 35.328C44.0557 34.6 43.566 33.9764 42.9398 33.5328C42.3137 33.9766 41.824 34.6 41.5456 35.328C40.8177 35.6062 40.1941 36.0959 39.7505 36.7221C40.1943 37.3483 40.8177 37.838 41.5456 38.1162Z" fill="#FFD993"/>
<path d="M50.3418 34.2589C50.5384 34.4555 50.6488 34.722 50.6488 35V66.3276C49.9633 66.6786 49.2643 67.0071 48.553 67.3122V35.434L44.9751 31.8563H23.4879L19.9103 35.434V66.5385C19.1973 66.1857 18.4982 65.8088 17.8145 65.409V35C17.8145 34.7221 17.9248 34.4557 18.1214 34.2589L22.313 30.0673C22.5095 29.8709 22.7761 29.7605 23.0538 29.7605H45.4092C45.6872 29.7605 45.9537 29.8709 46.1503 30.0675L50.3418 34.2589ZM46.5631 50.2015L43.882 47.5204C43.6521 47.2905 43.523 46.979 43.523 46.654V42.8621C43.523 42.1853 42.9743 41.6368 42.2977 41.6368H38.5059C38.181 41.6368 37.8692 41.5077 37.6395 41.2778L34.9584 38.5967C34.4799 38.1182 33.704 38.1182 33.2255 38.5967L30.5444 41.2778C30.3145 41.5077 30.003 41.6368 29.678 41.6368H25.8861C25.2093 41.6368 24.6608 42.1854 24.6608 42.8621V46.6538C24.6608 46.9788 24.5317 47.2905 24.3018 47.5202L21.6207 50.2013C21.1422 50.6799 21.1422 51.4558 21.6207 51.9343L24.3018 54.6154C24.5317 54.8452 24.6608 55.1568 24.6608 55.4818V59.2735C24.6608 59.9504 25.2094 60.4989 25.8861 60.4989H29.6778C30.0028 60.4989 30.3145 60.628 30.5442 60.8578L33.2253 63.5389C33.7039 64.0175 34.4798 64.0175 34.9583 63.5389L37.6394 60.8578C37.8692 60.628 38.1808 60.4989 38.5058 60.4989H42.2975C42.9743 60.4989 43.5229 59.9502 43.5229 59.2735V55.4818C43.5229 55.1568 43.652 54.8451 43.8818 54.6154L46.5629 51.9343C47.0416 51.4558 47.0416 50.68 46.5631 50.2015Z" fill="#FFD993"/>
<path d="M37.3755 54.2134C36.7342 55.8917 35.6051 57.329 34.1618 58.3519C32.7184 57.329 31.5894 55.8917 30.9481 54.2134C29.2698 53.5721 27.8325 52.443 26.8096 50.9997C27.8325 49.5562 29.2698 48.4273 30.9481 47.786C31.5894 46.1077 32.7185 44.6704 34.1618 43.6475C35.6053 44.6704 36.7342 46.1077 37.3755 47.786C39.0539 48.4273 40.4912 49.5564 41.5141 50.9997C40.4912 52.443 39.0539 53.572 37.3755 54.2134Z" fill="#FFCD71"/>
<path d="M32.8095 37.831L33.9181 36.7225C34.0272 36.6134 34.0272 36.4365 33.9181 36.3273L32.8095 35.2188C32.7004 35.1097 32.5235 35.1097 32.4144 35.2188L31.3059 36.3273C31.1967 36.4365 31.1967 36.6134 31.3059 36.7225L32.4144 37.831C32.5235 37.9401 32.7004 37.9401 32.8095 37.831ZM37.0626 37.831L38.1712 36.7225C38.2803 36.6134 38.2803 36.4365 38.1712 36.3273L37.0626 35.2188C36.9535 35.1097 36.7766 35.1097 36.6675 35.2188L35.559 36.3273C35.4498 36.4365 35.4498 36.6134 35.559 36.7225L36.6675 37.831C36.7766 37.9401 36.9535 37.9401 37.0626 37.831ZM32.8095 67.1723L33.9181 66.0638C34.0272 65.9547 34.0272 65.7778 33.9181 65.6687L32.8095 64.5601C32.7004 64.451 32.5235 64.451 32.4144 64.5601L31.3059 65.6687C31.1967 65.7778 31.1967 65.9547 31.3059 66.0638L32.4144 67.1723C32.5235 67.2815 32.7004 67.2815 32.8095 67.1723ZM37.0626 67.1723L38.1712 66.0638C38.2803 65.9547 38.2803 65.7778 38.1712 65.6687L37.0626 64.5601C36.9535 64.451 36.7766 64.451 36.6675 64.5601L35.559 65.6687C35.4498 65.7778 35.4498 65.9547 35.559 66.0638L36.6675 67.1723C36.7766 67.2815 36.9535 67.2815 37.0626 67.1723ZM35.69 52.5278C35.385 53.3259 34.8481 54.0094 34.1618 54.4958C33.4753 54.0094 32.9385 53.3259 32.6335 52.5278C31.8354 52.2228 31.1519 51.6859 30.6655 50.9995C31.1519 50.3131 31.8354 49.7763 32.6335 49.4713C32.9385 48.6732 33.4754 47.9897 34.1618 47.5033C34.8482 47.9897 35.385 48.6732 35.69 49.4713C36.4881 49.7763 37.1716 50.3132 37.658 50.9995C37.1716 51.686 36.4881 52.2228 35.69 52.5278Z" fill="#FFE7C0"/>
<path d="M45.1999 4.40123V40.13C45.1999 40.6657 44.8151 41.1451 44.2831 41.2096C43.6457 41.287 43.104 40.7917 43.104 40.1697V4.45572C43.104 3.29757 42.166 2.21013 41.0127 2.10548C39.6457 1.98154 38.4933 3.05935 38.4933 4.40109V6.98606H36.3975V4.49037C36.3975 2.17506 38.1505 0.186974 40.4593 0.0128824C43.0387 -0.181609 45.1999 1.86222 45.1999 4.40123Z" fill="#BC3F2A"/>
<path d="M24.8671 36.9198L25.9757 38.0284C26.0848 38.1375 26.2617 38.1375 26.3708 38.0284L27.4794 36.9198C27.5885 36.8107 27.5885 36.6338 27.4794 36.5247L26.3708 35.4161C26.2617 35.307 26.0848 35.307 25.9757 35.4161L24.8671 36.5247C24.758 36.6338 24.758 36.8107 24.8671 36.9198ZM41.6336 36.9198L42.7422 38.0284C42.8513 38.1375 43.0282 38.1375 43.1373 38.0284L44.2458 36.9198C44.355 36.8107 44.355 36.6338 44.2458 36.5247L43.1373 35.4161C43.0282 35.307 42.8513 35.307 42.7422 35.4161L41.6336 36.5247C41.5245 36.6338 41.5245 36.8107 41.6336 36.9198ZM41.6336 66.2611L42.7422 67.3697C42.8513 67.4788 43.0282 67.4788 43.1373 67.3697L44.2458 66.2611C44.355 66.152 44.355 65.9751 44.2458 65.866L43.1373 64.7575C43.0282 64.6483 42.8513 64.6483 42.7422 64.7575L41.6336 65.866C41.5245 65.9751 41.5245 66.152 41.6336 66.2611ZM24.0774 66.2611L25.186 67.3697C25.2951 67.4788 25.472 67.4788 25.5811 67.3697L26.6897 66.2611C26.7988 66.152 26.7988 65.9751 26.6897 65.866L25.5811 64.7575C25.472 64.6483 25.2951 64.6483 25.186 64.7575L24.0774 65.866C23.9683 65.9751 23.9683 66.152 24.0774 66.2611Z" fill="#FFA90B"/>
<path d="M45.1998 25.7086V48.9197C45.1998 49.4554 44.815 49.9347 44.2831 49.9993C43.6457 50.0767 43.104 49.5812 43.104 48.9594V25.7484C43.104 25.2127 43.4888 24.7333 44.0207 24.6688C44.658 24.5912 45.1998 25.0867 45.1998 25.7086Z" fill="#D1462A"/>
<path d="M49.2332 63.5172C47.7714 64.5062 40.7514 64.5062 39.2898 63.5172C38.083 60.9928 38.3995 57.7446 40.2389 55.5999L43.6178 51.6602C42.7592 51.3874 42.137 50.5839 42.137 49.6351C42.137 48.4618 43.0881 47.5106 44.2615 47.5106C45.4347 47.5106 46.3859 48.4617 46.3859 49.6351C46.3859 50.5841 45.7638 51.3874 44.9052 51.6602L48.284 55.5999C50.1235 57.7446 50.4399 60.9927 49.2332 63.5172Z" fill="#EA552D"/>
<path d="M46.3859 40.8969C46.3859 42.0701 45.4349 43.0214 44.2615 43.0214C43.0883 43.0214 42.137 42.0703 42.137 40.8969C42.137 39.7237 43.0881 38.7725 44.2615 38.7725C45.4347 38.7725 46.3859 39.7235 46.3859 40.8969ZM48.2841 55.5999L46.7297 53.7874C46.7343 54.0188 46.7366 54.2535 46.7366 54.491C46.7366 58.3493 46.1111 61.4771 45.3394 61.4771C44.5678 61.4771 43.9422 58.3493 43.9422 54.491C43.9422 54.4216 43.9425 54.3524 43.9429 54.2836L42.8141 55.5997C40.9747 57.7444 40.6582 60.9927 41.865 63.517C42.4465 63.9104 43.908 64.1474 45.5492 64.2277C47.1903 64.1474 48.6518 63.9104 49.2333 63.517C50.4399 60.9927 50.1235 57.7446 48.2841 55.5999Z" fill="#F76937"/>
</svg>
